<svg id="Лого_копия_2" data-name="Лого копия 2" xmlns="http://www.w3.org/2000/svg" width="772" height="184" viewBox="0 0 772 184">
  <metadata><?xpacket begin="﻿" id="W5M0MpCehiHzreSzNTczkc9d"?>
<x:xmpmeta xmlns:x="adobe:ns:meta/" x:xmptk="Adobe XMP Core 5.6-c138 79.159824, 2016/09/14-01:09:01        ">
   <rdf:RDF xmlns:rdf="http://www.w3.org/1999/02/22-rdf-syntax-ns#">
      <rdf:Description rdf:about=""/>
   </rdf:RDF>
</x:xmpmeta>
                                                                                                    
                                                                                                    
                                                                                                    
                                                                                                    
                                                                                                    
                                                                                                    
                                                                                                    
                                                                                                    
                                                                                                    
                                                                                                    
                                                                                                    
                                                                                                    
                                                                                                    
                                                                                                    
                                                                                                    
                                                                                                    
                                                                                                    
                                                                                                    
                                                                                                    
                                                                                                    
                           
<?xpacket end="w"?></metadata>
<defs>
    <style>
      .cls-1 {
        fill: #18aa8e;
      }

      .cls-1, .cls-2, .cls-3 {
        fill-rule: evenodd;
      }

      .cls-2 {
        fill: #314a62;
      }

      .cls-3 {
        fill: #929fac;
      }
    </style>
  </defs>
  <path id="Прямоугольник_18_копия_3" data-name="Прямоугольник 18 копия 3" class="cls-1" d="M500.488,215.606l3.177,1.835a14.687,14.687,0,0,1,5.37,20.055l-37.6,65.161a14.666,14.666,0,0,1-20.042,5.374L448.22,306.2a14.686,14.686,0,0,1-5.37-20.055l37.6-65.161A14.667,14.667,0,0,1,500.488,215.606ZM376.6,144.035l3.177,1.835a14.686,14.686,0,0,1,5.37,20.055l-37.6,65.161a14.667,14.667,0,0,1-20.042,5.374l-3.177-1.835a14.686,14.686,0,0,1-5.37-20.055l37.6-65.161A14.667,14.667,0,0,1,376.6,144.035Zm63.761-15.081,3.177,1.835a14.686,14.686,0,0,1,5.37,20.055L367.3,292.292a14.665,14.665,0,0,1-20.042,5.373l-3.176-1.835a14.685,14.685,0,0,1-5.37-20.055l81.611-141.447A14.667,14.667,0,0,1,440.364,128.954Zm9.2,79.483,3.176,1.835a14.687,14.687,0,0,1,5.371,20.055l-18.34,31.786a14.667,14.667,0,0,1-20.042,5.374l-3.177-1.836a14.687,14.687,0,0,1-5.37-20.055l18.34-31.786A14.666,14.666,0,0,1,449.565,208.437Z" transform="translate(-317 -126)"/>
  <path id="Signum_Place" data-name="Signum Place" class="cls-2" d="M509.054,134.1a24.674,24.674,0,0,0-8.514-5.154,31.369,31.369,0,0,0-10.92-1.841,25.284,25.284,0,0,0-9.346,1.61,20.773,20.773,0,0,0-6.848,4.281,18.3,18.3,0,0,0-4.234,6.121,18.05,18.05,0,0,0-1.458,7.087,19.639,19.639,0,0,0,1.319,7.663,15.282,15.282,0,0,0,3.493,5.178,18.3,18.3,0,0,0,4.951,3.36,48.714,48.714,0,0,0,5.645,2.209q2.87,0.921,5.645,1.7a26.176,26.176,0,0,1,4.951,1.91,10.645,10.645,0,0,1,3.494,2.784,6.666,6.666,0,0,1,1.318,4.28,8.981,8.981,0,0,1-2.915,7.2Q492.721,185,487.4,185a16.71,16.71,0,0,1-5.945-.943,25.179,25.179,0,0,1-4.327-2.094q-1.851-1.15-3.192-2.094a4.432,4.432,0,0,0-2.5-.944,3.039,3.039,0,0,0-1.573.438,3.882,3.882,0,0,0-1.2,1.081L465,186.38a25.76,25.76,0,0,0,4.442,3.59,31.806,31.806,0,0,0,5.345,2.761,33.148,33.148,0,0,0,5.945,1.772,31.892,31.892,0,0,0,6.293.622,26.979,26.979,0,0,0,9.856-1.68,21.364,21.364,0,0,0,7.287-4.6,19.478,19.478,0,0,0,4.535-6.857,22.838,22.838,0,0,0,1.55-8.445,16.944,16.944,0,0,0-1.319-7.042,15.034,15.034,0,0,0-3.493-4.9,19.654,19.654,0,0,0-4.951-3.313,53.986,53.986,0,0,0-5.691-2.3q-2.916-.988-5.692-1.863a32.5,32.5,0,0,1-4.951-1.98,10.981,10.981,0,0,1-3.493-2.669,5.862,5.862,0,0,1-1.319-3.912,8.65,8.65,0,0,1,.648-3.383,6.9,6.9,0,0,1,1.966-2.646,9.551,9.551,0,0,1,3.263-1.726,14.92,14.92,0,0,1,4.534-.621,15.557,15.557,0,0,1,4.974.713,22.507,22.507,0,0,1,3.679,1.588q1.572,0.874,2.707,1.588a4,4,0,0,0,2.1.713,2.636,2.636,0,0,0,1.55-.437,4.272,4.272,0,0,0,1.18-1.4Zm17.813,13.071v47.22h11.475v-47.22H526.867Zm12.447-16.615a7.442,7.442,0,0,0-1.6-2.3,7.654,7.654,0,0,0-2.337-1.542,7.214,7.214,0,0,0-2.869-.575,6.931,6.931,0,0,0-2.8.575,7.422,7.422,0,0,0-2.29,1.542,7.3,7.3,0,0,0-1.55,2.3,7.08,7.08,0,0,0-.579,2.854,6.638,6.638,0,0,0,.579,2.761,7.354,7.354,0,0,0,3.84,3.8,6.916,6.916,0,0,0,2.8.576,7.2,7.2,0,0,0,2.869-.576,7.527,7.527,0,0,0,3.933-3.8,6.443,6.443,0,0,0,.6-2.761A6.87,6.87,0,0,0,539.314,130.553Zm31.765,38.5a7.057,7.057,0,0,1-2.638-1.611,6.734,6.734,0,0,1-1.573-2.462,8.747,8.747,0,0,1-.532-3.083,7.378,7.378,0,0,1,2.105-5.546q2.1-2.047,6.316-2.048t6.316,2.048a7.381,7.381,0,0,1,2.105,5.546,8.9,8.9,0,0,1-.532,3.129,6.527,6.527,0,0,1-1.573,2.439,7.253,7.253,0,0,1-2.614,1.588A12.127,12.127,0,0,1,571.079,169.052Zm15.893,30.008a5.762,5.762,0,0,1-2.2,2.025,13.322,13.322,0,0,1-3.818,1.334,32.034,32.034,0,0,1-10.827.046,11.893,11.893,0,0,1-3.54-1.219,5.207,5.207,0,0,1-1.989-1.864,4.565,4.565,0,0,1-.625-2.324,5.042,5.042,0,0,1,1.18-3.314,10.7,10.7,0,0,1,3.077-2.485q2.175,0.276,4.465.368t4.442,0.207q2.151,0.115,4.072.345a16.91,16.91,0,0,1,3.354.713,5.508,5.508,0,0,1,2.268,1.358,3.137,3.137,0,0,1,.832,2.255A4.928,4.928,0,0,1,586.972,199.06ZM585.4,148.779a19.6,19.6,0,0,0-4.9-1.818,27.061,27.061,0,0,0-13.257.437,17.973,17.973,0,0,0-5.969,3.061,14.191,14.191,0,0,0-3.933,4.832,13.984,13.984,0,0,0-1.411,6.328,13.7,13.7,0,0,0,2.059,7.548,14.943,14.943,0,0,0,5.668,5.155,13.252,13.252,0,0,0-2.73,1.772,11.04,11.04,0,0,0-1.92,2.094,9.348,9.348,0,0,0-1.157,2.232,6.63,6.63,0,0,0-.393,2.186,7.32,7.32,0,0,0,1.11,4.234,7.959,7.959,0,0,0,3.008,2.578,13.943,13.943,0,0,0-5.529,3.567,7.97,7.97,0,0,0-2.013,5.545,9.3,9.3,0,0,0,1.295,4.695,11.953,11.953,0,0,0,3.933,3.981,22.333,22.333,0,0,0,6.617,2.761A37.353,37.353,0,0,0,575.22,211a31.206,31.206,0,0,0,9.74-1.4,23.459,23.459,0,0,0,7.218-3.7,16.358,16.358,0,0,0,4.488-5.247,12.9,12.9,0,0,0,1.55-6.075,10.34,10.34,0,0,0-1.319-5.5,9.685,9.685,0,0,0-3.493-3.382,16.766,16.766,0,0,0-4.951-1.818,46,46,0,0,0-5.691-.806q-2.916-.23-5.691-0.3a49.435,49.435,0,0,1-4.951-.345,10.853,10.853,0,0,1-3.494-.943,2.2,2.2,0,0,1-1.318-2.094q0-1.657,2.22-2.992,1.249,0.231,2.545.368a25.352,25.352,0,0,0,2.684.138,24.073,24.073,0,0,0,7.334-1.081,18.336,18.336,0,0,0,5.9-3.061,13.815,13.815,0,0,0,5.322-11.138,14.291,14.291,0,0,0-.972-5.338l4.257-.783q2.451-.459,2.452-2.485v-4.234H585.4Zm38.173,0.46a2.805,2.805,0,0,0-2.915-2.071H613.67v47.22H625.1V160.239A19.885,19.885,0,0,1,630,156.6a11.948,11.948,0,0,1,5.552-1.335q4.071,0,6.062,2.37a10.134,10.134,0,0,1,1.989,6.7v30.053h11.429V164.335A23.941,23.941,0,0,0,654,157.086a16.17,16.17,0,0,0-3.054-5.661,13.627,13.627,0,0,0-5.02-3.682,17.109,17.109,0,0,0-6.894-1.311,19.224,19.224,0,0,0-4.442.483,18.941,18.941,0,0,0-3.818,1.335,19.2,19.2,0,0,0-3.377,2.071,30.755,30.755,0,0,0-3.031,2.646Zm79.169-2.071v34.15a19.412,19.412,0,0,1-4.9,3.612,12.119,12.119,0,0,1-5.552,1.312q-4.026,0-6.039-2.37a10.047,10.047,0,0,1-2.013-6.7V147.168H672.8v30.007a23.932,23.932,0,0,0,1.041,7.249,16.176,16.176,0,0,0,3.077,5.684,13.74,13.74,0,0,0,5.02,3.7,16.942,16.942,0,0,0,6.871,1.312,17.824,17.824,0,0,0,8.283-1.818,25.483,25.483,0,0,0,6.431-4.764l0.787,3.774a2.688,2.688,0,0,0,2.869,2.071h6.986v-47.22H702.741Zm41.55,47.22V159.824a15.5,15.5,0,0,1,4-3.336,9.279,9.279,0,0,1,4.651-1.22,7.122,7.122,0,0,1,5.621,2.163q1.92,2.164,1.921,6.9v30.053h11.475V164.335a10.929,10.929,0,0,1,.648-3.912,7.618,7.618,0,0,1,4.418-4.557,8.76,8.76,0,0,1,3.262-.6,7.323,7.323,0,0,1,5.83,2.278q1.989,2.279,1.99,6.789v30.053h11.429V164.335a24.361,24.361,0,0,0-1.087-7.594,15.423,15.423,0,0,0-3.17-5.615,13.407,13.407,0,0,0-5.136-3.5,19.063,19.063,0,0,0-6.987-1.2,20.463,20.463,0,0,0-4.511.506,16.868,16.868,0,0,0-4.234,1.565,15.15,15.15,0,0,0-3.655,2.738,14.41,14.41,0,0,0-2.777,4.027,14.544,14.544,0,0,0-4.326-6.42,11.119,11.119,0,0,0-7.38-2.416,14.912,14.912,0,0,0-3.91.483,15.822,15.822,0,0,0-3.331,1.311,16.837,16.837,0,0,0-2.915,1.979,26.928,26.928,0,0,0-2.615,2.532l-0.74-3.5a2.806,2.806,0,0,0-2.915-2.071h-6.987v47.22h11.429ZM861.909,161.3V137.411h9.3a20.054,20.054,0,0,1,6.015.805,11.151,11.151,0,0,1,4.211,2.325,9.553,9.553,0,0,1,2.5,3.681,13.37,13.37,0,0,1,.833,4.833,14.733,14.733,0,0,1-.833,5.086,9.886,9.886,0,0,1-2.521,3.866,11.348,11.348,0,0,1-4.234,2.439,18.84,18.84,0,0,1-5.969.851h-9.3Zm-12.446-33.459v66.55h12.446V170.962h9.3a36.427,36.427,0,0,0,11.406-1.611,22.614,22.614,0,0,0,8.12-4.51,18.382,18.382,0,0,0,4.858-6.927,23.523,23.523,0,0,0,1.62-8.859,23.042,23.042,0,0,0-1.55-8.56,17.344,17.344,0,0,0-4.743-6.72,22.4,22.4,0,0,0-8.1-4.372,38.387,38.387,0,0,0-11.614-1.565H849.463ZM912.344,126v68.391h11.428V126H912.344Zm55.338,56.2a18.049,18.049,0,0,1-5.02,3.843,13.624,13.624,0,0,1-6.085,1.266,7.749,7.749,0,0,1-4.65-1.289,5.557,5.557,0,0,1-.9-7.088,7.1,7.1,0,0,1,2.915-2.255,22.328,22.328,0,0,1,5.413-1.588,63.5,63.5,0,0,1,8.329-.851v7.962Zm-24.153-24.807a5.189,5.189,0,0,0,1.342,1.45,3.307,3.307,0,0,0,2.036.621,5.007,5.007,0,0,0,2.521-.644q1.134-.644,2.522-1.45a19.153,19.153,0,0,1,3.216-1.45,14.035,14.035,0,0,1,4.6-.644,7.47,7.47,0,0,1,5.876,2.278q2.036,2.279,2.036,7.019v2.761a74.053,74.053,0,0,0-9.624.806,46.307,46.307,0,0,0-7.38,1.726,23.068,23.068,0,0,0-5.345,2.485,16.332,16.332,0,0,0-3.539,3.037,10.412,10.412,0,0,0-1.967,3.383,11.034,11.034,0,0,0-.6,3.567,14.13,14.13,0,0,0,1.018,5.569,10.835,10.835,0,0,0,2.868,4,12.2,12.2,0,0,0,4.4,2.416,18.313,18.313,0,0,0,5.553.806,22.878,22.878,0,0,0,4.65-.438,19.275,19.275,0,0,0,3.956-1.265,20.841,20.841,0,0,0,3.563-2.048,41.1,41.1,0,0,0,3.516-2.831l1.018,3.406a3.349,3.349,0,0,0,1.388,1.956,5.265,5.265,0,0,0,2.5.483h5.182V164.565a22.081,22.081,0,0,0-1.18-7.364,16.141,16.141,0,0,0-3.447-5.776,15.756,15.756,0,0,0-5.552-3.774,19.381,19.381,0,0,0-7.45-1.357,28.256,28.256,0,0,0-19.711,7.455Zm90.461-4.372a22.821,22.821,0,0,0-7.2-4.879,23.667,23.667,0,0,0-9.32-1.7,24.992,24.992,0,0,0-9.9,1.841,20.222,20.222,0,0,0-7.22,5.085,21.784,21.784,0,0,0-4.421,7.686,29.9,29.9,0,0,0-1.5,9.642,29.432,29.432,0,0,0,1.689,10.332,22.674,22.674,0,0,0,4.605,7.663,19.527,19.527,0,0,0,6.8,4.764,21.143,21.143,0,0,0,8.28,1.634,34.572,34.572,0,0,0,5.02-.369,23.654,23.654,0,0,0,4.91-1.265,22.264,22.264,0,0,0,4.6-2.393,20.815,20.815,0,0,0,4.12-3.7l-3.29-4.143a2.313,2.313,0,0,0-2.08-1.058,3.046,3.046,0,0,0-1.92.667q-0.855.668-2.01,1.473a13.877,13.877,0,0,1-2.85,1.473,12.2,12.2,0,0,1-4.42.667,11.253,11.253,0,0,1-4.9-1.035,10.057,10.057,0,0,1-3.7-3.038,14.306,14.306,0,0,1-2.34-4.948,25.388,25.388,0,0,1-.81-6.719,26.359,26.359,0,0,1,.74-6.512,13.968,13.968,0,0,1,2.25-4.9,9.974,9.974,0,0,1,3.77-3.106,12.113,12.113,0,0,1,5.27-1.082,12.761,12.761,0,0,1,3.96.529,15.042,15.042,0,0,1,2.75,1.2c0.77,0.445,1.44.844,1.99,1.2a3.173,3.173,0,0,0,1.71.529,2.285,2.285,0,0,0,1.41-.368,5.523,5.523,0,0,0,1-1.013Zm23.18,12.334a13.692,13.692,0,0,1,3.63-7.962,10.634,10.634,0,0,1,7.8-2.807,10.936,10.936,0,0,1,4.46.851,8.7,8.7,0,0,1,3.17,2.324,9.85,9.85,0,0,1,1.88,3.429,13.818,13.818,0,0,1,.62,4.165h-21.56Zm29.15,6.858a2.3,2.3,0,0,0,2.13-.9,7.359,7.359,0,0,0,.55-3.474,24.777,24.777,0,0,0-1.55-9.09,19.239,19.239,0,0,0-4.28-6.72,18.055,18.055,0,0,0-6.52-4.165,23.374,23.374,0,0,0-8.28-1.426,23.747,23.747,0,0,0-9.56,1.841,21.273,21.273,0,0,0-7.17,4.993,21.837,21.837,0,0,0-4.51,7.41,25.984,25.984,0,0,0-1.57,9.09,30.55,30.55,0,0,0,1.8,10.93,22.561,22.561,0,0,0,4.95,7.916,20.689,20.689,0,0,0,7.4,4.833,25.508,25.508,0,0,0,9.21,1.634,37.477,37.477,0,0,0,5.16-.369,27.158,27.158,0,0,0,5.23-1.265,24.209,24.209,0,0,0,4.93-2.393,18.967,18.967,0,0,0,4.25-3.7l-3.28-4.143a2.365,2.365,0,0,0-2.13-1.058,4.466,4.466,0,0,0-2.2.644c-0.75.43-1.63,0.906-2.63,1.427a22.956,22.956,0,0,1-3.52,1.427,15.775,15.775,0,0,1-4.79.644,14.468,14.468,0,0,1-5.07-.851,10.545,10.545,0,0,1-3.95-2.578,12.863,12.863,0,0,1-2.69-4.372,22.049,22.049,0,0,1-1.29-6.282h29.38Z" transform="translate(-317 -126)"/>
  <path id="The_big_monney_job" data-name="The big monney job" class="cls-3" d="M555.509,227.388h-28.5v4.488H538.6V263.6h5.366V231.876h11.541v-4.488Zm33.661,0v15.985H570.213V227.388H564.8V263.6h5.416V247.281H589.17V263.6h5.391V227.388H589.17Zm23.841,31.845v-11.8H626.78v-4.211H613.011V231.75h17.11v-4.362H607.6V263.6h22.526l0.025-4.362H613.011Zm50.062,0.1V247.256h7.593q3.922,0,5.8,1.551a5.218,5.218,0,0,1,1.873,4.248,7.11,7.11,0,0,1-.43,2.509,4.989,4.989,0,0,1-1.354,1.979,6.566,6.566,0,0,1-2.379,1.311,11.269,11.269,0,0,1-3.506.479h-7.593Zm6.454-27.735q3.9,0,5.746,1.412a6.105,6.105,0,0,1-.089,8.838q-1.936,1.6-5.91,1.6h-6.2V231.6h6.454Zm-11.845-4.21V263.6h13.085a18.21,18.21,0,0,0,5.467-.757,11.591,11.591,0,0,0,4.05-2.143,9.249,9.249,0,0,0,2.506-3.29,10.148,10.148,0,0,0,.86-4.224q0-6.681-7.922-8.245a12.269,12.269,0,0,0,2.987-1.386,8.931,8.931,0,0,0,2.1-1.879,7.346,7.346,0,0,0,1.241-2.256,7.925,7.925,0,0,0,.4-2.522,10.059,10.059,0,0,0-.747-3.971,7.519,7.519,0,0,0-2.316-2.988,11.042,11.042,0,0,0-4.012-1.891,22.837,22.837,0,0,0-5.859-.655H657.682Zm42.343,0h-5.416V263.6h5.416V227.388Zm31.283,18.582v3.051a1,1,0,0,0,.316.756,1.14,1.14,0,0,0,.823.3h5.365v7.589q-0.886.454-1.784,0.832a13.7,13.7,0,0,1-1.86.631,16.564,16.564,0,0,1-2.013.391,17.42,17.42,0,0,1-2.265.138,15.727,15.727,0,0,1-5.631-.958,11.515,11.515,0,0,1-4.277-2.786,12.524,12.524,0,0,1-2.721-4.463,17.287,17.287,0,0,1-.962-5.963,17.028,17.028,0,0,1,.911-5.736,12.429,12.429,0,0,1,2.607-4.375,11.345,11.345,0,0,1,4.1-2.786,14.29,14.29,0,0,1,5.391-.97,17.368,17.368,0,0,1,3.468.3,16.146,16.146,0,0,1,2.568.731,11.093,11.093,0,0,1,1.9.933q0.8,0.505,1.455.883a1.6,1.6,0,0,0,1.266.277,1.532,1.532,0,0,0,.936-0.731l1.544-2.421a17.507,17.507,0,0,0-2.518-1.9,16.842,16.842,0,0,0-2.949-1.45,19.025,19.025,0,0,0-3.455-.933,23.346,23.346,0,0,0-4.037-.328,21.185,21.185,0,0,0-7.757,1.349,16.879,16.879,0,0,0-5.885,3.782,16.484,16.484,0,0,0-3.733,5.85,20.953,20.953,0,0,0-1.3,7.526,20.086,20.086,0,0,0,1.354,7.489,16.656,16.656,0,0,0,3.86,5.849,17.513,17.513,0,0,0,6.061,3.808,22.129,22.129,0,0,0,7.96,1.361,22.692,22.692,0,0,0,6.783-.971,20.66,20.66,0,0,0,5.872-2.937V245.97H731.308Zm73.751-18.582a3.457,3.457,0,0,0-1.1.138,1.47,1.47,0,0,0-.721.769l-11.921,21.659a24.143,24.143,0,0,0-1.24,2.874q-0.279-.73-0.582-1.462a15.336,15.336,0,0,0-.658-1.387L776.687,228.3a1.571,1.571,0,0,0-.747-0.769,3.448,3.448,0,0,0-1.1-.138h-4V263.6h4.733V237.826a24.636,24.636,0,0,0-.152-2.647l12.326,22.188a2.014,2.014,0,0,0,1.924,1.235h0.759a2.064,2.064,0,0,0,1.949-1.235l12.1-22.113q-0.051.681-.088,1.337t-0.039,1.235V263.6h4.708V227.388h-4Zm49.594,10.665a17.124,17.124,0,0,0-3.682-5.862,16.756,16.756,0,0,0-5.7-3.833,20.394,20.394,0,0,0-14.718,0,16.588,16.588,0,0,0-5.694,3.833,17.371,17.371,0,0,0-3.683,5.862,21.714,21.714,0,0,0,0,14.889,17.392,17.392,0,0,0,3.683,5.849,16.418,16.418,0,0,0,5.694,3.82,20.562,20.562,0,0,0,14.718,0,16.582,16.582,0,0,0,5.7-3.82,17.144,17.144,0,0,0,3.682-5.849A21.9,21.9,0,0,0,854.653,238.053Zm-5.1,13.25a12.354,12.354,0,0,1-2.518,4.349,10.768,10.768,0,0,1-3.948,2.736,14.648,14.648,0,0,1-10.352,0,10.892,10.892,0,0,1-3.961-2.736,12.258,12.258,0,0,1-2.531-4.349,19.463,19.463,0,0,1,0-11.611,12.247,12.247,0,0,1,2.531-4.362,11.044,11.044,0,0,1,3.961-2.748,14.462,14.462,0,0,1,10.352,0,10.917,10.917,0,0,1,3.948,2.748,12.342,12.342,0,0,1,2.518,4.362A19.463,19.463,0,0,1,849.553,251.3Zm42.267-23.915v24.659q0,0.6.038,1.3c0.025,0.463.063,0.937,0.114,1.425L871.4,228.3a2.317,2.317,0,0,0-.784-0.743,2.636,2.636,0,0,0-1.063-.164h-2.785V263.6H871.5V238.759q0-.579-0.037-1.235t-0.089-1.337l20.526,26.45a3.133,3.133,0,0,0,.848.731,2.182,2.182,0,0,0,1.05.227h2.734V227.388H891.82Zm21.9,31.845v-11.8h13.768v-4.211H913.718V231.75h17.109v-4.362H908.3V263.6h22.526l0.025-4.362H913.718Zm55.3-31.845h-4.758a1.64,1.64,0,0,0-1.126.39,3.219,3.219,0,0,0-.7.845l-7.872,13.54q-0.48.933-.848,1.765t-0.645,1.639q-0.3-.807-0.7-1.639t-0.873-1.765l-7.9-13.54a2.635,2.635,0,0,0-.708-0.895,1.786,1.786,0,0,0-1.139-.34h-4.733l13.313,21.885V263.6h5.365V249.273Zm34.7,0h-5.393v23.726a14.323,14.323,0,0,1-.442,3.807,6.867,6.867,0,0,1-1.3,2.61,5.108,5.108,0,0,1-2.113,1.5,8.015,8.015,0,0,1-2.873.479,7.306,7.306,0,0,1-1.961-.214,4.572,4.572,0,0,0-1.177-.215,1.092,1.092,0,0,0-1.215,1.034l-0.3,3.177a20.475,20.475,0,0,0,5.214.706,12.934,12.934,0,0,0,4.973-.895,9.489,9.489,0,0,0,3.615-2.572,11.4,11.4,0,0,0,2.22-4.1,18.042,18.042,0,0,0,.76-5.446v-23.6Zm45.21,10.665a17.075,17.075,0,0,0-3.68-5.862,16.677,16.677,0,0,0-5.69-3.833,20.4,20.4,0,0,0-14.72,0,16.623,16.623,0,0,0-5.7,3.833,17.536,17.536,0,0,0-3.68,5.862,21.808,21.808,0,0,0,0,14.889,17.558,17.558,0,0,0,3.68,5.849,16.452,16.452,0,0,0,5.7,3.82,20.567,20.567,0,0,0,14.72,0,16.5,16.5,0,0,0,5.69-3.82,17.094,17.094,0,0,0,3.68-5.849A21.808,21.808,0,0,0,1048.93,238.053Zm-5.1,13.25a12.462,12.462,0,0,1-2.51,4.349,10.825,10.825,0,0,1-3.95,2.736,14.642,14.642,0,0,1-10.35,0,10.9,10.9,0,0,1-3.97-2.736,12.346,12.346,0,0,1-2.53-4.349,19.59,19.59,0,0,1,0-11.611,12.334,12.334,0,0,1,2.53-4.362,11.052,11.052,0,0,1,3.97-2.748,14.456,14.456,0,0,1,10.35,0,10.976,10.976,0,0,1,3.95,2.748,12.45,12.45,0,0,1,2.51,4.362A19.38,19.38,0,0,1,1043.83,251.3Zm22.61,8.03V247.256h7.59c2.61,0,4.55.517,5.79,1.551a5.22,5.22,0,0,1,1.88,4.248,7.248,7.248,0,0,1-.43,2.509,4.983,4.983,0,0,1-1.36,1.979,6.521,6.521,0,0,1-2.38,1.311,11.255,11.255,0,0,1-3.5.479h-7.59Zm6.45-27.735q3.9,0,5.74,1.412a6.109,6.109,0,0,1-.08,8.838q-1.935,1.6-5.91,1.6h-6.2V231.6h6.45Zm-11.85-4.21V263.6h13.09a18.272,18.272,0,0,0,5.47-.757,11.644,11.644,0,0,0,4.05-2.143,9.255,9.255,0,0,0,2.5-3.29,10.039,10.039,0,0,0,.86-4.224q0-6.681-7.92-8.245a12.345,12.345,0,0,0,2.99-1.386,9.072,9.072,0,0,0,2.1-1.879,7.471,7.471,0,0,0,1.24-2.256,7.894,7.894,0,0,0,.4-2.522,10.185,10.185,0,0,0-.74-3.971,7.511,7.511,0,0,0-2.32-2.988,11.056,11.056,0,0,0-4.01-1.891,22.846,22.846,0,0,0-5.86-.655h-11.85Z" transform="translate(-317 -126)"/>
</svg>
